<svg id="Warstwa_1" enable-background="new 0 0 512 512" viewBox="0 0 512 512" xmlns="http://www.w3.org/2000/svg" xmlns:xlink="http://www.w3.org/1999/xlink"><clipPath id="SVGID_00000135653995606440254680000016727646630120738197_"><path id="SVGID_1_" d="m404.5 366.5c-31.2 49-86.1 81.5-148.5 81.5s-117.3-32.5-148.5-81.5l8.8-16.5c4.1-7.6 10-13.9 17.2-18.3 5.8-3.6 12.3-5.9 19.2-6.8l63.3-7.9 40-5 40 5 63.3 7.9c6.9.9 13.5 3.2 19.2 6.8 7.1 4.4 13.1 10.6 17.2 18.3z" fill="#000000"></path></clipPath><clipPath id="SVGID_00000069365528252032549290000003820525947571236526_"><path id="SVGID_00000067920005503193428320000001821707642910367624_" d="m256 312-103.3 12.9c-6.9.9-13.5 3.2-19.2 6.8-7.1 4.4-13.1 10.6-17.2 18.3l-8.8 16.5c21.5 33.8 54.2 59.7 92.9 72.6v-47c0-17.8 5.8-34.2 15.6-47.5.3 21.8 18.1 39.5 40 39.5 22.1 0 40-17.9 40-40v-27z" fill="#000000"></path></clipPath><clipPath id="SVGID_00000152225508404028673480000002676699185995968412_"><path id="SVGID_00000109006720878883258300000013978693277841212307_" d="m256 368c-13.3 0-24-10.7-24-24v-40h48v40c0 13.3-10.7 24-24 24z" fill="#000000"></path></clipPath><clipPath id="SVGID_00000029027165619448044010000011422048824086317751_"><path id="SVGID_00000138534593155301620110000010451773186275184786_" d="m256 368c-13.3 0-24-10.7-24-24v-40h48v40c0 13.3-10.7 24-24 24z" fill="#000000"></path></clipPath><clipPath id="SVGID_00000145763267918891332710000011172105644750050235_"><path id="SVGID_00000007427579847637873960000003304763084207673010_" d="m336 232c0 44.2-35.8 80-80 80s-80-35.8-80-80c0-14.6 0-65.4 0-80 0-44.2 35.8-80 80-80s80 35.8 80 80z" fill="#000000"></path></clipPath><g id="tlo"><path d="m432 272c0 34.8-10.1 67.2-27.5 94.5-31.2 49-86.1 81.5-148.5 81.5-19.6 0-38.4-3.2-56-9.1-38.5-12.9-71.1-38.8-92.5-72.4-17.4-27.3-27.5-59.7-27.5-94.5 0-97.2 78.8-176 176-176s176 78.8 176 176z" fill="#00a9f2" style="fill: rgb(0, 154, 219);"></path><circle cx="256" cy="256" fill="#64ddff" r="144"></circle></g><g id="cialo"><path d="m404.5 366.5c-31.2 49-86.1 81.5-148.5 81.5s-117.3-32.5-148.5-81.5l8.8-16.5c4.1-7.6 10-13.9 17.2-18.3 5.8-3.6 12.3-5.9 19.2-6.8l63.3-7.9 40-5 40 5 63.3 7.9c6.9.9 13.5 3.2 19.2 6.8 7.1 4.4 13.1 10.6 17.2 18.3z" fill="#525287" style="fill: rgb(129, 28, 166);"></path><g><g><g clip-path="url(#SVGID_00000135653995606440254680000016727646630120738197_)"><g><circle cx="256" cy="424" fill="#4970c5" r="8" style="fill: rgb(138, 156, 193);"></circle></g><g><circle cx="336" cy="424" fill="#4970c5" r="8" style="fill: rgb(138, 156, 193);"></circle></g><g><circle cx="296" cy="384" fill="#4970c5" r="8" style="fill: rgb(138, 156, 193);"></circle></g><g><circle cx="376" cy="384" fill="#4970c5" r="8" style="fill: rgb(138, 156, 193);"></circle></g><g><circle cx="216" cy="384" fill="#4970c5" r="8" style="fill: rgb(138, 156, 193);"></circle></g><g><circle cx="336" cy="344" fill="#4970c5" r="8" style="fill: rgb(138, 156, 193);"></circle></g></g></g></g><path d="m256 312-103.3 12.9c-6.9.9-13.5 3.2-19.2 6.8-7.1 4.4-13.1 10.6-17.2 18.3l-8.8 16.5c21.5 33.8 54.2 59.7 92.9 72.6v-47c0-17.8 5.8-34.2 15.6-47.5.3 21.8 18.1 39.5 40 39.5 22.1 0 40-17.9 40-40v-27z" fill="#393962" style="fill: rgb(83, 40, 138);"></path><g><g><g clip-path="url(#SVGID_00000069365528252032549290000003820525947571236526_)"><g><circle cx="176" cy="424" fill="#525287" r="8" style="fill: rgb(129, 28, 166);"></circle></g><g><circle cx="136" cy="384" fill="#525287" r="8" style="fill: rgb(129, 28, 166);"></circle></g><g><circle cx="176" cy="344" fill="#525287" r="8" style="fill: rgb(129, 28, 166);"></circle></g></g></g></g><g><path d="m320 360v32h-8v-32c0-30.9-25.1-56-56-56s-56 25.1-56 56v32h-8v-32c0-35.4 28.7-64 64-64s64 28.6 64 64z" fill="#c1e2d3" style="fill: rgb(199, 199, 199);"></path><g id="SŁUCHAWKI_00000111878844571410605830000010304348592655472276_" fill="#fff"><path id="lewa_x5F_sluchawka_00000023983261342565985270000003153464800330169535_" d="m320 421.9c4.8-2.8 8-7.9 8-13.9 0-5.9-3.2-11.1-8-13.9v-14.1c0-2.2-1.8-4-4-4s-4 1.8-4 4v12 12 20c2.9 0 5.7-.8 8-2.1z" fill="#fff"></path><path id="prawa_x5F_sluchawka_00000025401216020045453750000000693130502497254587_" d="m192 405.9c-4.8-2.8-8-7.9-8-13.9 0-5.9 3.2-11.1 8-13.9v-14.1c0-2.2 1.8-4 4-4s4 1.8 4 4v12 12 20c-2.9 0-5.7-.8-8-2.1z" fill="#fff"></path></g></g></g><g id="glowa"><g id="glowa_00000041290556943815755670000014924106515705939873_"><g display="none"><g display="inline"><path id="SVGID_00000067917863832103081800000001763905044896007835_" d="m256 368c-13.3 0-24-10.7-24-24v-40h48v40c0 13.3-10.7 24-24 24z" fill="#99441d"></path></g><g display="inline"><circle clip-path="url(#SVGID_00000152225508404028673480000002676699185995968412_)" cx="248" cy="264" fill="#80200e" r="64"></circle></g></g><g><g><path id="SVGID_00000111871865084335162840000005092660035167388850_" d="m256 368c-13.3 0-24-10.7-24-24v-40h48v40c0 13.3-10.7 24-24 24z" fill="#b97230" style="fill: rgb(181, 110, 44);"></path></g><g><circle clip-path="url(#SVGID_00000029027165619448044010000011422048824086317751_)" cx="248" cy="264" fill="#80200e" r="64"></circle></g></g><g><path d="m336 216c-8.8 0-16-7.2-16-16v-16c0-8.8 7.2-16 16-16 8.8 0 16 7.2 16 16v16c0 8.8-7.2 16-16 16z" fill="#99441d"></path><path d="m336 208c-4.4 0-8-3.6-8-8v-16c0-4.4 3.6-8 8-8 4.4 0 8 3.6 8 8v16c0 4.4-3.6 8-8 8z" fill="#80200e"></path></g><g><path d="m176 216c-8.8 0-16-7.2-16-16v-16c0-8.8 7.2-16 16-16 8.8 0 16 7.2 16 16v16c0 8.8-7.2 16-16 16z" fill="#99441d"></path><path d="m176 208c-4.4 0-8-3.6-8-8v-16c0-4.4 3.6-8 8-8 4.4 0 8 3.6 8 8v16c0 4.4-3.6 8-8 8z" fill="#80200e"></path></g><g><g><path id="XMLID_00000036951067471297083350000009894600883481737912_" d="m336 232c0 44.2-35.8 80-80 80s-80-35.8-80-80c0-14.6 0-65.4 0-80 0-44.2 35.8-80 80-80s80 35.8 80 80z" fill="#99441d"></path></g><g><path clip-path="url(#SVGID_00000145763267918891332710000011172105644750050235_)" d="m360 232c0 44.2-35.8 80-80 80s-80-35.8-80-80c0-14.6 0-65.4 0-80 0-44.2 35.8-80 80-80s80 35.8 80 80z" fill="#b97230" style="fill: rgb(181, 110, 44);"></path></g></g><path id="nos_00000044159890352115739410000002048401063596633477_" d="m248 220c0-2.2 1.8-4 4-4h8c2.2 0 4 1.8 4 4 0 2.2-1.8 4-4 4h-8c-2.2 0-4-1.8-4-4z" fill="#99441d"></path></g><path id="usta_3" d="m278.8 249.2c-1.6-1.6-4.1-1.6-5.7 0-9.4 9.4-24.8 9.4-34.2 0-1.6-1.6-4.1-1.6-5.7 0s-1.6 4.1 0 5.7c12.6 12.6 33 12.6 45.6 0 1.6-1.6 1.6-4.1 0-5.7z" fill="#99441d"></path><g id="oczy_00000178185429084564526010000003612093210819843514_"><g id="oko_x5F_lewe_00000046298944629150452850000016813853449332332960_"><path d="m224 216c-4.4 0-8-3.6-8-8v-16c0-4.4 3.6-8 8-8 4.4 0 8 3.6 8 8v16c0 4.4-3.6 8-8 8z" fill="#283033" style="fill: rgb(27, 29, 29);"></path><circle cx="228" cy="196" fill="#fff" r="4"></circle></g><g id="oko_x5F_prawe_00000106128304054641358350000002556002206621387923_"><path d="m288 216c-4.4 0-8-3.6-8-8v-16c0-4.4 3.6-8 8-8 4.4 0 8 3.6 8 8v16c0 4.4-3.6 8-8 8z" fill="#283033" style="fill: rgb(27, 29, 29);"></path><circle cx="292" cy="196" fill="#fff" r="4"></circle></g></g><g id="brwi" fill="#283033"><path id="brew_x5F_lewa" d="m240 160v8c0 4.4-3.6 8-8 8h-24v-8c0-4.4 3.6-8 8-8z" fill="#283033" style="fill: rgb(27, 29, 29);"></path><path id="brew_x5F_prawa" d="m304 168v8h-24c-4.4 0-8-3.6-8-8v-8h24c4.4 0 8 3.6 8 8z" fill="#283033" style="fill: rgb(27, 29, 29);"></path></g><g id="rumience_00000154401536261897467650000013894258506863690625_" fill="#99441d"><circle cx="304" cy="224" r="8" fill="#99441d"></circle><circle cx="208" cy="224" r="8" fill="#99441d"></circle></g></g><path id="fryzura" d="m336 164.4v43.6c-4.4 0-8-3.6-8-8v-43.3c-4.9 2.1-10.3 3.3-16 3.3-15.5 0-28.9-8.8-35.5-21.6-6 3.6-13 5.6-20.5 5.6s-14.5-2.1-20.5-5.6c-6.7 12.8-20.1 21.6-35.5 21.6-5.7 0-11.1-1.2-16-3.3v43.3c0 2.2-.9 4.2-2.3 5.7-1.4 1.4-3.4 2.3-5.7 2.3v-43.6c0-7-2.6-13.7-7-19.1-6.2-7.6-9.6-17.4-8.9-28.1 1.4-19.7 17.3-35.7 37.1-37.1.5 0 1.1-.1 1.6-.1 12.9-.4 25.6-3.6 36.7-10.3 6-3.6 13.1-5.7 20.6-5.7s14.6 2.1 20.6 5.7c11.1 6.7 23.8 9.9 36.7 10.3.5 0 1.1 0 1.6.1 19.7 1.4 35.7 17.3 37.1 37.1.7 10.7-2.7 20.5-8.9 28.1-4.6 5.4-7.2 12.1-7.2 19.1z" fill="#283033" style="fill: rgb(27, 29, 29);"></path></svg>